<svg width="120" height="82" viewBox="0 0 120 82" fill="none" xmlns="http://www.w3.org/2000/svg">
<path d="M28.4276 1.51226C20.9039 -2.05241 13.649 1.51226 10.9619 3.74018C5.73719 7.0078 -2.02527 15.8601 8.7228 25.1282C19.4709 34.3964 9.02133 49.7839 2.45304 56.3191C-4.2645 71.9145 7.37929 76.3704 19.023 78.5983C25.7291 79.8814 40.331 81.8192 56.0101 81.9874C71.9866 82.1589 89.0816 80.5389 100.081 79.4894C124.265 77.7071 123.369 65.2308 110.829 58.1014C101.549 52.8253 102.619 43.1001 103.664 39.8325C104.112 34.9311 115.308 26.9106 116.651 22.0091C119.786 1.06669 99.1857 2.40344 94.2595 2.84903C89.3333 3.29461 85.7506 9.53279 81.2722 11.3151C76.7939 13.0975 73.2112 13.543 64.7023 13.543C56.1934 13.543 37.8321 5.9681 28.4276 1.51226Z" fill="#9878c4"/>
</svg>
